<?xml version="1.0" standalone="no"?><!DOCTYPE svg PUBLIC "-//W3C//DTD SVG 1.1//EN" "http://www.w3.org/Graphics/SVG/1.1/DTD/svg11.dtd"><svg t="1582030406493" class="icon" viewBox="0 0 1024 1024" version="1.1" xmlns="http://www.w3.org/2000/svg" p-id="1566" xmlns:xlink="http://www.w3.org/1999/xlink" width="32" height="32"><defs><style type="text/css"></style></defs><path d="M529.12 36.32a35.968 35.968 0 0 0-34.176 0c-44.448 23.68-165.76 84.544-248.16 87.456a30.848 30.848 0 0 0-29.184 30.624v355.616s1.024 104.384 117.056 183.872c0.064 0 40.416 31.36 152.096 69.856 16.32 5.664 34.24 5.664 50.56 0 111.68-38.464 152.032-69.856 152.032-69.856C805.44 614.4 806.4 510.016 806.4 510.016V154.4a30.784 30.784 0 0 0-29.12-30.624c-82.336-2.912-203.712-63.68-248.16-87.456z" fill="#2276FF" p-id="1567"></path><path d="M654.08 312.64v65.92h-19.52v16a155.2 155.2 0 0 1-44.8 60.8c20.16 10.88 44.16 20.16 72.32 27.84l-19.84 30.4c-32.96-10.24-60.48-22.4-82.56-37.12-25.6 14.72-56.96 26.88-93.44 36.48l-17.6-31.68c32-7.04 59.52-16 82.56-26.88-18.24-17.28-31.36-36.48-39.36-57.92h-13.44v-17.92h-16.96V312.64h124.16c10.88-18.56 19.84-38.4 27.52-59.52l31.36 11.84c-8.32 18.56-16.64 34.24-24.96 47.68h34.56z m-129.28 83.84c8.32 15.04 20.48 28.48 35.84 40.32 16.64-11.84 29.44-25.28 38.72-40.32H524.8z m-31.68-30.08h128.64v-21.76h-128.64v21.76z m64-108.48c8.96 15.04 15.68 28.8 20.16 41.28l-26.88 10.24c-5.76-14.72-13.12-29.44-21.44-43.84l28.16-7.68z m-56 1.28c8.64 14.72 15.36 28.16 19.84 40.32l-26.88 10.24c-5.76-14.72-12.8-28.8-21.12-42.88l28.16-7.68z m135.04-42.24l15.68 27.2c-45.44 8.32-105.92 12.8-181.76 12.8l-9.92-29.76c69.12 0 128-3.52 176-10.24z m-232.96 292.8h-27.2l-7.36-31.68c8 1.28 15.68 1.92 23.04 1.92 4.48 0 7.04-2.56 7.04-7.04V406.4l-26.88 9.6-8.32-32.96c11.84-2.88 23.68-6.4 35.2-10.24V304.64h-32V272.32h32V217.6h32.96v54.72h26.24v32.32h-26.24v54.4c8-3.84 16-8.32 24-12.8v33.6c-8 4.16-16 8.32-24 12.16v89.28c0 18.88-9.6 28.48-28.48 28.48z" fill="#FFFFFF" p-id="1568"></path><path d="M529.952 956c2.624-26.496 8.48-52.864 17.536-79.104l95.136-126.336c7.744-10.304 19.808-16.32 32.608-16.32a16.768 16.768 0 0 1 16.32 20.096l-16 79.488 79.04-42.368a93.504 93.504 0 0 0 42.048-46.4l51.36-122.912a22.816 22.816 0 0 1 31.264-11.744c12.704 6.336 19.296 20.8 15.808 34.656l-42.208 167.84a93.824 93.824 0 0 1-36.928 53.888l-137.76 96.96-10.4 37.44a30.976 30.976 0 0 1-36.032 22.176l-96.832-19.904c-5.952-5.12-7.584-20.928-4.96-47.456z m-35.904 0c2.624 26.56 0.96 42.368-4.96 47.456l-96.832 19.904a30.976 30.976 0 0 1-36.032-22.208l-10.4-37.44-137.76-96.96c-18.336-12.864-31.456-32-36.928-53.856l-42.208-167.84a30.432 30.432 0 0 1 15.84-34.656 22.816 22.816 0 0 1 31.232 11.744l51.36 122.912c8.32 19.904 23.168 36.288 42.048 46.4l79.04 42.368-16-79.488a16.768 16.768 0 0 1 16.32-20.096c12.8 0 24.864 6.016 32.64 16.32l95.104 126.336c9.056 26.24 14.912 52.608 17.536 79.104z" fill="#90BAFF" p-id="1569"></path></svg>